<svg xmlns="http://www.w3.org/2000/svg" viewBox="0 0 220 50"><g fill="#fff"><path clip-rule="evenodd" d="M217.867 8.945A3.5 3.5 0 0 0 220 5.684a3.442 3.442 0 0 0-3.5-3.46 3.5 3.5 0 1 0 1.367 6.721zm-1.371-5.847a2.632 2.632 0 1 1 .06 5.265 2.632 2.632 0 0 1-.06-5.265zm.359.849a1.079 1.079 0 0 1 .487 2.079l.809 1.401h-1.033l-.697-1.316h-.428v1.316h-.848v-3.48zm-.23 1.546H216v-.862h.625c.302 0 .5.138.5.428s-.211.434-.5.434z" fill-rule="evenodd"/><path d="M.041 8.54h6.687v3.344c1.544-1.982 3.566-3.785 6.955-3.785 3.084 0 5.416 1.366 6.645 3.74 2.073-2.42 4.555-3.74 7.744-3.74 4.974 0 7.966 2.992 7.966 8.654V32.13h-6.686V18.971c0-3.188-1.408-4.796-3.918-4.796s-4.026 1.626-4.026 4.796V32.13h-6.714V18.971c0-3.188-1.407-4.796-3.917-4.796s-4.05 1.626-4.05 4.796V32.13H.042z"/><path clip-rule="evenodd" d="M38.466 20.378v.087c0 6.778 5.38 12.212 12.722 12.212s12.808-5.52 12.808-12.298v-.087c0-6.782-5.38-12.212-12.722-12.212s-12.808 5.52-12.808 12.3zm18.925 0v.087c0 3.48-2.277 6.409-6.117 6.427-3.698 0-6.208-3.038-6.208-6.513v-.087c0-3.48 2.29-6.427 6.122-6.427 3.698 0 6.203 3.038 6.203 6.513zm9.065-.086v.086c0 7.862 5.238 12.194 10.74 12.194 3.475 0 5.72-1.63 7.352-3.83v3.388h6.686V0h-6.686v11.62c-1.586-1.89-3.79-3.521-7.352-3.521-5.593 0-10.74 4.313-10.74 12.193zm18.178 0v.086c0 3.918-2.592 6.514-5.72 6.514s-5.767-2.596-5.767-6.513v-.087c0-3.963 2.641-6.514 5.766-6.514s5.721 2.597 5.721 6.514z" fill-rule="evenodd"/><path d="M119.588 8.54h6.691v4.751c1.366-3.257 3.566-5.37 7.529-5.192v6.996h-.351c-4.445 0-7.178 2.687-7.178 8.321v8.714h-6.691zm16.971 0h6.691v3.344c1.54-1.982 3.521-3.785 6.91-3.785 5.061 0 8.012 3.343 8.012 8.759V32.13h-6.691V18.971c0-3.188-1.498-4.796-4.049-4.796s-4.182 1.626-4.182 4.796V32.13h-6.691zM161.229 0h7.042v5.94h-7.042zm.173 8.54h6.691v23.595h-6.691z"/><path clip-rule="evenodd" d="M105.436 8.099c7.88 0 11.487 6.117 11.487 12.808 0 .528-.045 1.143-.132 1.776h-16.397c.66 3.038 2.774 4.623 5.766 4.623 2.246 0 3.872-.706 5.721-2.418l3.831 3.389c-2.2 2.728-5.37 4.4-9.643 4.4-7.06 0-12.298-4.974-12.298-12.194v-.086c0-6.75 4.796-12.298 11.665-12.298zm4.887 9.856c-.528-2.696-2.241-4.486-4.887-4.486-2.61 0-4.359 1.753-5.001 4.486z" fill-rule="evenodd"/><path d="M191.468 13.25V8.54h-20.119v5.412h11.798L170.958 27.42v4.71h3.334zm13.046 14.038h-.233l4.332 4.746a11.386 11.386 0 0 0 5.466-3.776l-3.826-3.388c-1.877 1.712-3.508 2.418-5.739 2.418z"/><path clip-rule="evenodd" d="M193.167 15.113A11.319 11.319 0 0 1 203.753 8.1c7.88 0 11.487 6.117 11.487 12.808 0 .528-.041 1.143-.086 1.758h-15.095zm10.586-1.644c-2.624 0-4.373 1.753-5.011 4.486h9.898c-.524-2.696-2.264-4.486-4.887-4.486z" fill-rule="evenodd"/></g><path d="M185.042 26.719h6.427v5.42h-6.427z" fill="#fec24d"/><path d="M6.755 42.142v7.365H5.05v-3.02H1.704v3.02H0v-7.365h1.704v2.901H5.05v-2.901z" fill="#fff"/><path clip-rule="evenodd" d="M8.896 45.822c0 1.388.765 2.663 1.99 3.316.636.34 1.347.515 2.068.51a4.29 4.29 0 0 0 2.077-.506 3.73 3.73 0 0 0 1.44-1.366 3.867 3.867 0 0 0 0-3.904 3.744 3.744 0 0 0-1.44-1.366 4.291 4.291 0 0 0-2.077-.492c-.72-.01-1.43.158-2.068.492a3.758 3.758 0 0 0-1.99 3.316zm6.048 1.22a2.13 2.13 0 0 1-.824.839c-.361.202-.77.306-1.184.3a2.332 2.332 0 0 1-1.18-.3 2.145 2.145 0 0 1-.824-.838 2.629 2.629 0 0 1 0-2.442c.192-.35.48-.639.829-.833.36-.203.767-.307 1.18-.3.412-.006.819.098 1.18.3.346.195.632.484.824.833a2.628 2.628 0 0 1 0 2.442z" fill="#fff" fill-rule="evenodd"/><path d="M25.835 49.507v-4.423l-2.168 3.644h-.774l-2.16-3.548v4.327H19.13v-7.365h1.412l2.76 4.554 2.734-4.554h1.398l.023 7.365zm9.916-1.371v1.366h-5.689v-7.36h5.552v1.366h-3.871v1.585h3.416v1.326h-3.416v1.703zm6.992 1.144a3.025 3.025 0 0 1-1.143-.72l.241-.401c.296.296.654.525 1.048.67a3.82 3.82 0 0 0 1.366.254 2.632 2.632 0 0 0 1.59-.4c.34-.236.54-.625.533-1.04a1.09 1.09 0 0 0-.283-.792 1.882 1.882 0 0 0-.706-.455c-.37-.132-.75-.24-1.134-.324a11.479 11.479 0 0 1-1.303-.391 2.087 2.087 0 0 1-.81-.588 1.558 1.558 0 0 1-.342-1.057c-.002-.348.096-.69.282-.983.215-.313.518-.554.87-.693.462-.19.959-.28 1.458-.264.406 0 .81.06 1.198.178.364.105.709.27 1.02.487l-.2.428a3.46 3.46 0 0 0-.97-.455 3.55 3.55 0 0 0-1.048-.16 2.483 2.483 0 0 0-1.549.41c-.324.25-.51.639-.5 1.048a1.08 1.08 0 0 0 .282.792c.198.203.439.36.706.456.375.135.759.247 1.147.337.439.103.87.233 1.294.387.316.123.6.32.824.574.24.291.363.662.342 1.038.003.348-.097.689-.287.98a1.99 1.99 0 0 1-.91.701c-.467.19-.969.28-1.472.265a4.255 4.255 0 0 1-1.544-.283zm11.779-.26v.487h-5.079v-7.365h4.924v.482h-4.391v2.925h3.926v.455h-3.926v3.02z" fill="#fff"/><path clip-rule="evenodd" d="M60.306 47.043l1.759 2.464.587.014-1.822-2.579a2.246 2.246 0 0 0 1.726-2.304 2.278 2.278 0 0 0-.787-1.822 3.302 3.302 0 0 0-2.191-.674h-2.642v7.365h.55v-2.41h2.105c.24-.001.479-.02.715-.054zm1.084-.943a2.732 2.732 0 0 1-1.799.524h-2.104v-4h2.104c.642-.044 1.28.14 1.8.52a2.072 2.072 0 0 1 0 2.956z" fill="#fff" fill-rule="evenodd"/><path d="M71.12 42.142l-3.284 7.365h-.538l-3.284-7.365h.592l2.98 6.668 2.974-6.668zm2.131 0h.538v7.365h-.538zm4.847 6.932a3.584 3.584 0 0 1-1.367-1.339 3.935 3.935 0 0 1 0-3.826 3.584 3.584 0 0 1 1.367-1.34 3.962 3.962 0 0 1 1.95-.482 4.045 4.045 0 0 1 1.484.273c.437.16.83.42 1.148.76l-.337.347a3.093 3.093 0 0 0-2.277-.87 3.389 3.389 0 0 0-1.686.42 3.097 3.097 0 0 0-1.184 1.165 3.393 3.393 0 0 0 0 3.316c.282.49.693.891 1.189 1.162a3.393 3.393 0 0 0 1.685.423 3.088 3.088 0 0 0 2.278-.883l.337.346a3.02 3.02 0 0 1-1.153.765 3.96 3.96 0 0 1-1.466.264 3.917 3.917 0 0 1-1.968-.5zm12.088-.054v.487h-5.074v-7.365h4.924v.482h-4.404v2.925h3.926v.455h-3.926v3.02zm3.066.26a3.006 3.006 0 0 1-1.139-.72l.241-.401c.296.297.654.526 1.048.67.436.167.9.254 1.367.254.559.04 1.116-.1 1.59-.4a1.23 1.23 0 0 0 .537-1.04 1.111 1.111 0 0 0-.283-.792 1.88 1.88 0 0 0-.706-.455 9.366 9.366 0 0 0-1.138-.323 11.7 11.7 0 0 1-1.299-.392 2.085 2.085 0 0 1-.815-.588 1.557 1.557 0 0 1-.341-1.057 1.77 1.77 0 0 1 .282-.983c.214-.313.517-.554.87-.693.46-.19.955-.28 1.453-.264.407 0 .812.06 1.202.178.365.105.71.27 1.02.487l-.2.428a3.699 3.699 0 0 0-2.022-.62 2.478 2.478 0 0 0-1.544.41 1.289 1.289 0 0 0-.529 1.062 1.1 1.1 0 0 0 .287.793c.197.203.437.358.702.455.376.133.76.246 1.148.337.438.102.87.232 1.293.387.318.123.602.32.83.574.24.291.361.662.34 1.039a1.74 1.74 0 0 1-.29.979 1.95 1.95 0 0 1-.912.701c-.466.19-.968.28-1.47.265a4.279 4.279 0 0 1-1.522-.292z" fill="#fff"/></svg>